<svg width="512" height="512" viewBox="0 0 512 512" xmlns="http://www.w3.org/2000/svg" xmlns:xlink="http://www.w3.org/1999/xlink" overflow="hidden"><defs></defs><defs></defs><path d="M76 240C88.1016 240 99.0547 235.145 107.148 227.348L151.551 249.547C151.328 251.355 151 253.133 151 255 151 279.812 171.188 300 196 300 220.812 300 241 279.812 241 255 241 248.074 239.297 241.59 236.488 235.723L296.723 175.488C302.59 178.297 309.074 180 316 180 340.812 180 361 159.812 361 135 361 130.328 360.082 125.91 358.754 121.672L411.09 82.4297C418.23 87.1992 426.789 90 436 90 460.812 90 481 69.8125 481 45 481 20.1875 460.812 0 436 0 411.188 0 391 20.1875 391 45 391 49.6719 391.918 54.0898 393.246 58.3281L340.91 97.5703C333.77 92.8008 325.211 90 316 90 291.188 90 271 110.188 271 135 271 141.926 272.703 148.41 275.512 154.277L215.277 214.512C209.41 211.703 202.926 210 196 210 183.898 210 172.945 214.855 164.852 222.652L120.449 200.453C120.672 198.645 121 196.867 121 195 121 170.188 100.813 150 76 150 51.1875 150 31 170.188 31 195 31 219.812 51.1875 240 76 240" fill="#7375CB"/><path d="M497 482 481 482 481 165C481 156.711 474.289 150 466 150L406 150C397.711 150 391 156.711 391 165L391 482 361 482 361 255C361 246.711 354.289 240 346 240L286 240C277.711 240 271 246.711 271 255L271 482 241 482 241 375C241 366.711 234.289 360 226 360L166 360C157.711 360 151 366.711 151 375L151 482 121 482 121 315C121 306.711 114.289 300 106 300L46 300C37.7109 300 31 306.711 31 315L31 482 15 482C6.71094 482 0 488.711 0 497 0 505.289 6.71094 512 15 512L497 512C505.289 512 512 505.289 512 497 512 488.711 505.289 482 497 482" fill="#7375CB"/></svg>